<svg width="56" height="56" viewBox="0 0 56 56" fill="none" xmlns="http://www.w3.org/2000/svg">
<path d="M13.8098 10.5854C13.8697 10.4011 14.1303 10.4011 14.1902 10.5854L15.0777 13.3167C15.1044 13.3991 15.1812 13.4549 15.2679 13.4549H18.1397C18.3335 13.4549 18.414 13.7028 18.2573 13.8167L15.9339 15.5048C15.8638 15.5557 15.8345 15.646 15.8613 15.7284L16.7487 18.4597C16.8086 18.6439 16.5977 18.7972 16.4409 18.6833L14.1176 16.9952C14.0475 16.9443 13.9525 16.9443 13.8824 16.9952L11.5591 18.6833C11.4023 18.7972 11.1914 18.6439 11.2513 18.4597L12.1387 15.7284C12.1655 15.646 12.1362 15.5557 12.0661 15.5048L9.7427 13.8167C9.58595 13.7028 9.66651 13.4549 9.86025 13.4549H12.7321C12.8188 13.4549 12.8956 13.3991 12.9223 13.3167L13.8098 10.5854Z" fill="#CDD6F9"/>
<path d="M27.8098 10.5854C27.8697 10.4011 28.1303 10.4011 28.1902 10.5854L29.0777 13.3167C29.1044 13.3991 29.1812 13.4549 29.2679 13.4549H32.1397C32.3335 13.4549 32.414 13.7028 32.2573 13.8167L29.9339 15.5048C29.8638 15.5557 29.8345 15.646 29.8613 15.7284L30.7487 18.4597C30.8086 18.6439 30.5977 18.7972 30.4409 18.6833L28.1176 16.9952C28.0475 16.9443 27.9525 16.9443 27.8824 16.9952L25.5591 18.6833C25.4023 18.7972 25.1914 18.6439 25.2513 18.4597L26.1387 15.7284C26.1655 15.646 26.1362 15.5557 26.0661 15.5048L23.7427 13.8167C23.586 13.7028 23.6665 13.4549 23.8603 13.4549H26.7321C26.8188 13.4549 26.8956 13.3991 26.9223 13.3167L27.8098 10.5854Z" fill="#CDD6F9"/>
<path d="M41.8098 10.5854C41.8697 10.4011 42.1303 10.4011 42.1902 10.5854L43.0777 13.3167C43.1044 13.3991 43.1812 13.4549 43.2679 13.4549H46.1397C46.3335 13.4549 46.414 13.7028 46.2573 13.8167L43.9339 15.5048C43.8638 15.5557 43.8345 15.646 43.8613 15.7284L44.7487 18.4597C44.8086 18.6439 44.5977 18.7972 44.4409 18.6833L42.1176 16.9952C42.0475 16.9443 41.9525 16.9443 41.8824 16.9952L39.5591 18.6833C39.4023 18.7972 39.1914 18.6439 39.2513 18.4597L40.1387 15.7284C40.1655 15.646 40.1362 15.5557 40.0661 15.5048L37.7427 13.8167C37.586 13.7028 37.6665 13.4549 37.8603 13.4549H40.7321C40.8188 13.4549 40.8956 13.3991 40.9223 13.3167L41.8098 10.5854Z" fill="#CDD6F9"/>
<path d="M40.4098 25.8631L34.476 31.0832L29.1893 24.5752C29.0413 24.3933 28.8541 24.2471 28.6417 24.1475C28.4293 24.0479 28.1972 23.9975 27.9627 24.0001C27.7281 24.0026 27.4971 24.0581 27.2869 24.1622C27.0768 24.2664 26.8928 24.4166 26.7488 24.6017L21.7038 31.0816L15.5782 25.7867C15.3377 25.5792 15.0395 25.4501 14.7235 25.4167C14.4075 25.3833 14.0889 25.4472 13.8103 25.5998C13.5316 25.7524 13.3062 25.9864 13.1643 26.2706C13.0223 26.5548 12.9706 26.8756 13.016 27.1899L15 43H41L42.9829 27.2632C43.0301 26.9471 42.979 26.6241 42.8364 26.338C42.6939 26.0519 42.4668 25.8165 42.186 25.6637C41.9052 25.5109 41.5842 25.4481 41.2665 25.4837C40.9488 25.5194 40.6497 25.6518 40.4098 25.8631Z" fill="#0432DF"/>
<path d="M15 45H41V47C41 47.5523 40.5523 48 40 48H16C15.4477 48 15 47.5523 15 47V45Z" fill="#CDD6F9"/>
</svg>
