<svg width="56" height="56" viewBox="0 0 56 56" fill="none" xmlns="http://www.w3.org/2000/svg">
<circle cx="28" cy="36" r="11" fill="#CDD6F9"/>
<path d="M28 18C36.1315 18 43 24.8685 43 33C43 41.1315 36.1315 48 28 48C19.8685 48 13 41.1315 13 33C13 24.8685 19.8685 18 28 18ZM28 25.5C25.4095 25.5 23.5 27.408 23.5 30C23.5 32.592 25.4095 34.5 28 34.5C30.589 34.5 32.5 32.592 32.5 30C32.5 27.408 30.589 25.5 28 25.5ZM35.659 40.158C34.3135 38.178 32.0695 36.858 29.5 36.858H26.5C23.929 36.858 21.6865 38.178 20.341 40.158C22.258 42.21 24.9775 43.5 28 43.5C31.0225 43.5 33.742 42.21 35.659 40.158Z" fill="#0432DF"/>
<path d="M11.8098 16.5854C11.8697 16.4011 12.1303 16.4011 12.1902 16.5854L12.8532 18.6257C12.8799 18.7081 12.9567 18.7639 13.0434 18.7639H15.1887C15.3824 18.7639 15.463 19.0119 15.3062 19.1257L13.5706 20.3867C13.5005 20.4377 13.4712 20.5279 13.498 20.6103L14.1609 22.6507C14.2208 22.8349 14.0099 22.9881 13.8532 22.8743L12.1176 21.6133C12.0475 21.5623 11.9525 21.5623 11.8824 21.6133L10.1468 22.8743C9.9901 22.9881 9.7792 22.8349 9.83907 22.6507L10.502 20.6103C10.5288 20.5279 10.4995 20.4377 10.4294 20.3867L8.69375 19.1257C8.53701 19.0119 8.61757 18.7639 8.81131 18.7639H10.9566C11.0433 18.7639 11.1201 18.7081 11.1468 18.6257L11.8098 16.5854Z" fill="#CDD6F9"/>
<path d="M44.1902 16.5854C44.1303 16.4011 43.8697 16.4011 43.8098 16.5854L43.1468 18.6257C43.1201 18.7081 43.0433 18.7639 42.9566 18.7639H40.8113C40.6176 18.7639 40.537 19.0119 40.6938 19.1257L42.4294 20.3867C42.4995 20.4377 42.5288 20.5279 42.502 20.6103L41.8391 22.6507C41.7792 22.8349 41.9901 22.9881 42.1468 22.8743L43.8824 21.6133C43.9525 21.5623 44.0475 21.5623 44.1176 21.6133L45.8532 22.8743C46.0099 22.9881 46.2208 22.8349 46.1609 22.6507L45.498 20.6103C45.4712 20.5279 45.5005 20.4377 45.5706 20.3867L47.3062 19.1257C47.463 19.0119 47.3824 18.7639 47.1887 18.7639H45.0434C44.9567 18.7639 44.8799 18.7081 44.8532 18.6257L44.1902 16.5854Z" fill="#CDD6F9"/>
<path d="M18.8098 10.5854C18.8697 10.4011 19.1303 10.4011 19.1902 10.5854L19.8532 12.6257C19.8799 12.7081 19.9567 12.7639 20.0434 12.7639H22.1887C22.3824 12.7639 22.463 13.0119 22.3062 13.1257L20.5706 14.3867C20.5005 14.4377 20.4712 14.5279 20.498 14.6103L21.1609 16.6507C21.2208 16.8349 21.0099 16.9881 20.8532 16.8743L19.1176 15.6133C19.0475 15.5623 18.9525 15.5623 18.8824 15.6133L17.1468 16.8743C16.9901 16.9881 16.7792 16.8349 16.8391 16.6507L17.502 14.6103C17.5288 14.5279 17.4995 14.4377 17.4294 14.3867L15.6938 13.1257C15.537 13.0119 15.6176 12.7639 15.8113 12.7639H17.9566C18.0433 12.7639 18.1201 12.7081 18.1468 12.6257L18.8098 10.5854Z" fill="#CDD6F9"/>
<path d="M37.1902 10.5854C37.1303 10.4011 36.8697 10.4011 36.8098 10.5854L36.1468 12.6257C36.1201 12.7081 36.0433 12.7639 35.9566 12.7639H33.8113C33.6176 12.7639 33.537 13.0119 33.6938 13.1257L35.4294 14.3867C35.4995 14.4377 35.5288 14.5279 35.502 14.6103L34.8391 16.6507C34.7792 16.8349 34.9901 16.9881 35.1468 16.8743L36.8824 15.6133C36.9525 15.5623 37.0475 15.5623 37.1176 15.6133L38.8532 16.8743C39.0099 16.9881 39.2208 16.8349 39.1609 16.6507L38.498 14.6103C38.4712 14.5279 38.5005 14.4377 38.5706 14.3867L40.3062 13.1257C40.463 13.0119 40.3824 12.7639 40.1887 12.7639H38.0434C37.9567 12.7639 37.8799 12.7081 37.8532 12.6257L37.1902 10.5854Z" fill="#CDD6F9"/>
<path d="M27.8098 8.58541C27.8697 8.40115 28.1303 8.40115 28.1902 8.58541L28.8532 10.6257C28.8799 10.7081 28.9567 10.7639 29.0434 10.7639H31.1887C31.3824 10.7639 31.463 11.0119 31.3062 11.1257L29.5706 12.3867C29.5005 12.4377 29.4712 12.5279 29.498 12.6103L30.1609 14.6507C30.2208 14.8349 30.0099 14.9881 29.8532 14.8743L28.1176 13.6133C28.0475 13.5623 27.9525 13.5623 27.8824 13.6133L26.1468 14.8743C25.9901 14.9881 25.7792 14.8349 25.8391 14.6507L26.502 12.6103C26.5288 12.5279 26.4995 12.4377 26.4294 12.3867L24.6938 11.1257C24.537 11.0119 24.6176 10.7639 24.8113 10.7639H26.9566C27.0433 10.7639 27.1201 10.7081 27.1468 10.6257L27.8098 8.58541Z" fill="#CDD6F9"/>
</svg>
