<svg width="56" height="56" viewBox="0 0 56 56" fill="none" xmlns="http://www.w3.org/2000/svg">
<mask id="path-1-inside-1_237_421" fill="white">
<path d="M43.58 17.3096C43.58 16.0128 43.0648 14.7691 42.1478 13.8522C41.2309 12.9352 39.9872 12.42 38.6904 12.42L36.4679 12.42C35.1768 12.4193 33.9384 11.908 33.023 10.9976L31.4672 9.44185C31.0128 8.9849 30.4726 8.62227 29.8776 8.37483C29.2825 8.12738 28.6445 8 28 8C27.3556 8 26.7176 8.12738 26.1226 8.37483C25.5275 8.62227 24.9873 8.9849 24.5329 9.44185L22.9771 10.9976C22.0617 11.908 20.8233 12.4193 19.5322 12.42H17.3097C16.0129 12.42 14.7692 12.9352 13.8523 13.8522C12.9353 14.7691 12.4201 16.0128 12.4201 17.3096V19.5321C12.4194 20.8232 11.9081 22.0616 10.9977 22.977L9.44195 24.5328C8.985 24.9872 8.62238 25.5274 8.37494 26.1224C8.12749 26.7175 8.0001 27.3555 8.0001 28C8.0001 28.6444 8.12749 29.2824 8.37494 29.8774C8.62238 30.4725 8.985 31.0127 9.44195 31.4671L10.9977 33.0229C11.9081 33.9383 12.4194 35.1767 12.4201 36.4678L12.4201 38.6903C12.4201 39.9871 12.9353 41.2308 13.8523 42.1477C14.7692 43.0647 16.0129 43.5799 17.3097 43.5799L19.5322 43.5799C20.8233 43.5806 22.0617 44.0919 22.9771 45.0023L24.5329 46.5581C24.9873 47.015 25.5275 47.3776 26.1226 47.6251C26.7176 47.8725 27.3556 47.9999 28 47.9999C28.6445 47.9999 29.2825 47.8725 29.8776 47.6251C30.4726 47.3776 31.0128 47.015 31.4672 46.5581L33.023 45.0023C33.9384 44.0919 35.1768 43.5806 36.4679 43.5799H38.6904C39.9872 43.5799 41.2309 43.0647 42.1478 42.1477C43.0648 41.2308 43.58 39.9871 43.58 38.6903V36.4678C43.5807 35.1767 44.092 33.9383 45.0024 33.0229L46.5582 31.4671C47.0151 31.0127 47.3777 30.4725 47.6252 29.8774C47.8726 29.2824 48 28.6444 48 28C48 27.3555 47.8726 26.7175 47.6252 26.1224C47.3777 25.5274 47.0151 24.9872 46.5582 24.5328L45.0024 22.977C44.092 22.0616 43.5807 20.8232 43.58 19.5321V17.3096Z"/>
</mask>
<path d="M43.58 17.3096C43.58 16.0128 43.0648 14.7691 42.1478 13.8522C41.2309 12.9352 39.9872 12.42 38.6904 12.42L36.4679 12.42C35.1768 12.4193 33.9384 11.908 33.023 10.9976L31.4672 9.44185C31.0128 8.9849 30.4726 8.62227 29.8776 8.37483C29.2825 8.12738 28.6445 8 28 8C27.3556 8 26.7176 8.12738 26.1226 8.37483C25.5275 8.62227 24.9873 8.9849 24.5329 9.44185L22.9771 10.9976C22.0617 11.908 20.8233 12.4193 19.5322 12.42H17.3097C16.0129 12.42 14.7692 12.9352 13.8523 13.8522C12.9353 14.7691 12.4201 16.0128 12.4201 17.3096V19.5321C12.4194 20.8232 11.9081 22.0616 10.9977 22.977L9.44195 24.5328C8.985 24.9872 8.62238 25.5274 8.37494 26.1224C8.12749 26.7175 8.0001 27.3555 8.0001 28C8.0001 28.6444 8.12749 29.2824 8.37494 29.8774C8.62238 30.4725 8.985 31.0127 9.44195 31.4671L10.9977 33.0229C11.9081 33.9383 12.4194 35.1767 12.4201 36.4678L12.4201 38.6903C12.4201 39.9871 12.9353 41.2308 13.8523 42.1477C14.7692 43.0647 16.0129 43.5799 17.3097 43.5799L19.5322 43.5799C20.8233 43.5806 22.0617 44.0919 22.9771 45.0023L24.5329 46.5581C24.9873 47.015 25.5275 47.3776 26.1226 47.6251C26.7176 47.8725 27.3556 47.9999 28 47.9999C28.6445 47.9999 29.2825 47.8725 29.8776 47.6251C30.4726 47.3776 31.0128 47.015 31.4672 46.5581L33.023 45.0023C33.9384 44.0919 35.1768 43.5806 36.4679 43.5799H38.6904C39.9872 43.5799 41.2309 43.0647 42.1478 42.1477C43.0648 41.2308 43.58 39.9871 43.58 38.6903V36.4678C43.5807 35.1767 44.092 33.9383 45.0024 33.0229L46.5582 31.4671C47.0151 31.0127 47.3777 30.4725 47.6252 29.8774C47.8726 29.2824 48 28.6444 48 28C48 27.3555 47.8726 26.7175 47.6252 26.1224C47.3777 25.5274 47.0151 24.9872 46.5582 24.5328L45.0024 22.977C44.092 22.0616 43.5807 20.8232 43.58 19.5321V17.3096Z" fill="#CDD6F9"/>
<path d="M46.58 17.3096C46.58 18.9664 45.2368 20.3096 43.58 20.3096C41.9231 20.3096 40.58 18.9664 40.58 17.3096H46.58ZM38.6904 12.42V9.42003V12.42ZM36.4679 12.42V15.42L36.4662 15.42L36.4679 12.42ZM33.023 10.9976L30.9076 13.1249L30.9016 13.1189L33.023 10.9976ZM31.4672 9.44185L29.3459 11.5632L29.3399 11.5572L31.4672 9.44185ZM28 8V5V8ZM24.5329 9.44185L26.6602 11.5572L26.6542 11.5632L24.5329 9.44185ZM22.9771 10.9976L25.0985 13.1189L25.0925 13.1249L22.9771 10.9976ZM19.5322 12.42L19.5339 15.42H19.5322V12.42ZM17.3097 12.42V9.42003V12.42ZM12.4201 19.5321H15.4201V19.5338L12.4201 19.5321ZM10.9977 22.977L13.125 25.0924L13.119 25.0984L10.9977 22.977ZM9.44195 24.5328L11.5633 26.6541L11.5573 26.6601L9.44195 24.5328ZM9.44195 31.4671L11.5573 29.3398L11.5633 29.3458L9.44195 31.4671ZM10.9977 33.0229L13.119 30.9015L13.125 30.9075L10.9977 33.0229ZM12.4201 36.4678L15.4201 36.4661V36.4678H12.4201ZM19.5322 43.5799V40.5799H19.5339L19.5322 43.5799ZM22.9771 45.0023L25.0925 42.875L25.0985 42.881L22.9771 45.0023ZM24.5329 46.5581L26.6542 44.4367L26.6602 44.4427L24.5329 46.5581ZM31.4672 46.5581L29.3399 44.4427L29.3459 44.4367L31.4672 46.5581ZM33.023 45.0023L30.9016 42.881L30.9076 42.875L33.023 45.0023ZM36.4679 43.5799L36.4662 40.5799H36.4679V43.5799ZM43.58 38.6903H46.58H43.58ZM43.58 36.4678H40.58L40.58 36.4661L43.58 36.4678ZM45.0024 33.0229L42.8751 30.9075L42.8811 30.9015L45.0024 33.0229ZM46.5582 31.4671L44.4368 29.3458L44.4428 29.3398L46.5582 31.4671ZM48 28H51H48ZM46.5582 24.5328L44.4428 26.6601L44.4368 26.6541L46.5582 24.5328ZM45.0024 22.977L42.8811 25.0984L42.8751 25.0924L45.0024 22.977ZM43.58 19.5321L40.58 19.5338V19.5321H43.58ZM40.58 17.3096C40.58 15.6527 41.9231 14.3096 43.58 14.3096C45.2368 14.3096 46.58 15.6527 46.58 17.3096H40.58ZM40.58 17.3096C40.58 16.8085 40.3809 16.3278 40.0265 15.9735L44.2692 11.7308C45.7487 13.2104 46.58 15.2171 46.58 17.3096H40.58ZM40.0265 15.9735C39.6722 15.6191 39.1915 15.42 38.6904 15.42V9.42003C40.7829 9.42003 42.7896 10.2513 44.2692 11.7308L40.0265 15.9735ZM38.6904 15.42L36.4679 15.42V9.42003H38.6904V15.42ZM36.4662 15.42C34.383 15.4188 32.3848 14.5938 30.9076 13.1249L35.1383 8.87034C35.4921 9.22215 35.9707 9.41975 36.4696 9.42003L36.4662 15.42ZM30.9016 13.1189L29.3459 11.5632L33.5885 7.32053L35.1443 8.8763L30.9016 13.1189ZM29.3399 11.5572C29.1643 11.3806 28.9555 11.2405 28.7256 11.1449L31.0295 5.60481C31.9896 6.00407 32.8613 6.58918 33.5945 7.3265L29.3399 11.5572ZM28.7256 11.1449C28.4957 11.0492 28.2491 11 28 11V5C29.0399 5 30.0694 5.20554 31.0295 5.60481L28.7256 11.1449ZM28 11C27.751 11 27.5044 11.0492 27.2745 11.1449L24.9706 5.60481C25.9307 5.20554 26.9602 5 28 5V11ZM27.2745 11.1449C27.0446 11.2405 26.8358 11.3806 26.6602 11.5572L22.4056 7.3265C23.1388 6.58918 24.0105 6.00407 24.9706 5.60481L27.2745 11.1449ZM26.6542 11.5632L25.0985 13.1189L20.8558 8.8763L22.4116 7.32053L26.6542 11.5632ZM25.0925 13.1249C23.6153 14.5938 21.6171 15.4188 19.5339 15.42L19.5305 9.42003C20.0294 9.41975 20.508 9.22215 20.8618 8.87034L25.0925 13.1249ZM19.5322 15.42H17.3097V9.42003H19.5322V15.42ZM17.3097 15.42C16.8086 15.42 16.3279 15.6191 15.9736 15.9735L11.7309 11.7308C13.2105 10.2513 15.2173 9.42003 17.3097 9.42003V15.42ZM15.9736 15.9735C15.6192 16.3278 15.4201 16.8085 15.4201 17.3096L9.42014 17.3096C9.42014 15.2171 10.2514 13.2104 11.7309 11.7308L15.9736 15.9735ZM15.4201 17.3096V19.5321L9.42014 19.5321V17.3096L15.4201 17.3096ZM15.4201 19.5338C15.4189 21.617 14.5939 23.6152 13.125 25.0924L8.87045 20.8617C9.22225 20.5079 9.41985 20.0293 9.42014 19.5304L15.4201 19.5338ZM13.119 25.0984L11.5633 26.6541L7.32063 22.4115L8.8764 20.8557L13.119 25.0984ZM11.5573 26.6601C11.3807 26.8357 11.2406 27.0444 11.145 27.2744L5.60491 24.9705C6.00417 24.0104 6.58928 23.1387 7.3266 22.4055L11.5573 26.6601ZM11.145 27.2744C11.0493 27.5043 11.0001 27.7509 11.0001 28H5.0001C5.0001 26.9601 5.20565 25.9306 5.60491 24.9705L11.145 27.2744ZM11.0001 28C11.0001 28.249 11.0493 28.4955 11.145 28.7255L5.60491 31.0294C5.20565 30.0693 5.0001 29.0398 5.0001 28H11.0001ZM11.145 28.7255C11.2406 28.9555 11.3807 29.1642 11.5573 29.3398L7.3266 33.5944C6.58928 32.8612 6.00417 31.9895 5.60491 31.0294L11.145 28.7255ZM11.5633 29.3458L13.119 30.9015L8.8764 35.1442L7.32063 33.5884L11.5633 29.3458ZM13.125 30.9075C14.5939 32.3847 15.4189 34.3829 15.4201 36.4661L9.42014 36.4695C9.41985 35.9706 9.22225 35.492 8.87045 35.1382L13.125 30.9075ZM15.4201 36.4678L15.4201 38.6903H9.42014L9.42014 36.4678H15.4201ZM15.4201 38.6903C15.4201 39.1914 15.6192 39.6721 15.9736 40.0264L11.7309 44.2691C10.2514 42.7895 9.42014 40.7827 9.42014 38.6903H15.4201ZM15.9736 40.0264C16.3279 40.3808 16.8086 40.5799 17.3097 40.5799V46.5799C15.2173 46.5799 13.2105 45.7486 11.7309 44.2691L15.9736 40.0264ZM17.3097 40.5799L19.5322 40.5799V46.5799L17.3097 46.5799V40.5799ZM19.5339 40.5799C21.6171 40.5811 23.6153 41.4061 25.0925 42.875L20.8618 47.1296C20.508 46.7778 20.0294 46.5802 19.5305 46.5799L19.5339 40.5799ZM25.0985 42.881L26.6542 44.4367L22.4116 48.6794L20.8558 47.1236L25.0985 42.881ZM26.6602 44.4427C26.8358 44.6193 27.0445 44.7594 27.2745 44.855L24.9706 50.3951C24.0105 49.9958 23.1388 49.4107 22.4056 48.6734L26.6602 44.4427ZM27.2745 44.855C27.5045 44.9507 27.751 44.9999 28 44.9999V50.9999C26.9602 50.9999 25.9307 50.7943 24.9706 50.3951L27.2745 44.855ZM28 44.9999C28.2491 44.9999 28.4957 44.9507 28.7256 44.855L31.0295 50.3951C30.0694 50.7943 29.0399 50.9999 28 50.9999V44.9999ZM28.7256 44.855C28.9556 44.7594 29.1643 44.6193 29.3399 44.4427L33.5945 48.6734C32.8613 49.4107 31.9896 49.9958 31.0295 50.3951L28.7256 44.855ZM29.3459 44.4367L30.9016 42.881L35.1443 47.1236L33.5885 48.6794L29.3459 44.4367ZM30.9076 42.875C32.3848 41.4061 34.383 40.5811 36.4662 40.5799L36.4696 46.5799C35.9707 46.5802 35.4921 46.7778 35.1383 47.1296L30.9076 42.875ZM36.4679 40.5799H38.6904L38.6904 46.5799H36.4679L36.4679 40.5799ZM38.6904 40.5799C39.1915 40.5799 39.6722 40.3808 40.0265 40.0264L44.2692 44.2691C42.7896 45.7486 40.7829 46.5799 38.6904 46.5799L38.6904 40.5799ZM40.0265 40.0264C40.3809 39.6721 40.58 39.1914 40.58 38.6903H46.58C46.58 40.7827 45.7487 42.7895 44.2692 44.2691L40.0265 40.0264ZM40.58 38.6903V36.4678H46.58L46.58 38.6903H40.58ZM40.58 36.4661C40.5812 34.3829 41.4062 32.3847 42.8751 30.9075L47.1297 35.1382C46.7779 35.492 46.5803 35.9706 46.58 36.4695L40.58 36.4661ZM42.8811 30.9015L44.4368 29.3458L48.6795 33.5884L47.1237 35.1442L42.8811 30.9015ZM44.4428 29.3398C44.6194 29.1642 44.7595 28.9554 44.8551 28.7255L50.3952 31.0294C49.9959 31.9895 49.4108 32.8612 48.6735 33.5944L44.4428 29.3398ZM44.8551 28.7255C44.9508 28.4956 45 28.249 45 28H51C51 29.0398 50.7945 30.0693 50.3952 31.0294L44.8551 28.7255ZM45 28C45 27.7509 44.9508 27.5043 44.8551 27.2744L50.3952 24.9705C50.7945 25.9306 51 26.9601 51 28H45ZM44.8551 27.2744C44.7595 27.0445 44.6194 26.8357 44.4428 26.6601L48.6735 22.4055C49.4108 23.1387 49.9959 24.0104 50.3952 24.9705L44.8551 27.2744ZM44.4368 26.6541L42.8811 25.0984L47.1237 20.8557L48.6795 22.4115L44.4368 26.6541ZM42.8751 25.0924C41.4062 23.6152 40.5812 21.617 40.58 19.5338L46.58 19.5304C46.5803 20.0293 46.7779 20.5079 47.1297 20.8617L42.8751 25.0924ZM40.58 19.5321V17.3096H46.58V19.5321H40.58Z" fill="#0432DF" mask="url(#path-1-inside-1_237_421)"/>
<path d="M18.5739 31H19.6278V28.5284H22.0455V27.6449H19.6278V26.0653H22.3011V25.1818H18.5739V31ZM23.2614 31H24.3153V28.8693H25.3892L26.5312 31H27.7074L26.4489 28.6932C27.1335 28.4176 27.4943 27.8324 27.4943 27.0426C27.4943 25.9318 26.7784 25.1818 25.4432 25.1818H23.2614V31ZM24.3153 27.9943V26.0625H25.2812C26.0682 26.0625 26.4205 26.4233 26.4205 27.0426C26.4205 27.6619 26.0682 27.9943 25.2869 27.9943H24.3153ZM28.4645 31H32.2713V30.1165H29.5185V28.5284H32.0526V27.6449H29.5185V26.0653H32.2486V25.1818H28.4645V31ZM33.3239 31H37.1307V30.1165H34.3778V28.5284H36.9119V27.6449H34.3778V26.0653H37.108V25.1818H33.3239V31Z" fill="#0432DF"/>
</svg>
