<svg width="56" height="56" viewBox="0 0 56 56" fill="none" xmlns="http://www.w3.org/2000/svg">
<circle cx="28" cy="28" r="18.5" fill="#CDD6F9" stroke="#0432DF" stroke-width="3"/>
<path fill-rule="evenodd" clip-rule="evenodd" d="M24 21C23.4477 21 23 21.4477 23 22V31C23 31.5523 23.4477 32 24 32C24.5523 32 25 31.5523 25 31V22C25 21.4477 24.5523 21 24 21ZM27 22C27 21.4477 27.4477 21 28 21H30.5C32.9853 21 35 23.0147 35 25.5V25C37.7614 25 40 27.2386 40 30V31.1765C40 31.6313 39.6313 32 39.1765 32H35H28C27.4477 32 27 31.5523 27 31V22ZM19 25C19 24.4477 19.4477 24 20 24C20.5523 24 21 24.4477 21 25V31C21 31.5523 20.5523 32 20 32C19.4477 32 19 31.5523 19 31V25ZM16 27C15.4477 27 15 27.4477 15 28V31C15 31.5523 15.4477 32 16 32C16.5523 32 17 31.5523 17 31V28C17 27.4477 16.5523 27 16 27Z" fill="#0432DF"/>
</svg>
