<svg width="31" height="24" viewBox="0 0 31 24" fill="none" xmlns="http://www.w3.org/2000/svg">
<path d="M27.8615 2.63175C29.5782 4.45508 30.4999 6.50008 30.4999 9.81508C30.4999 15.6484 26.4049 20.8768 20.4499 23.4618L18.9615 21.1651C24.5199 18.1584 25.6065 14.2568 26.0399 11.7968C25.1449 12.2601 23.9732 12.4217 22.8249 12.3151C19.8182 12.0367 17.4482 9.56842 17.4482 6.50008C17.4482 4.95299 18.0628 3.46925 19.1567 2.37529C20.2507 1.28133 21.7344 0.666748 23.2815 0.666748C25.0699 0.666748 26.7799 1.48341 27.8615 2.63175ZM11.1949 2.63175C12.9115 4.45508 13.8332 6.50008 13.8332 9.81508C13.8332 15.6484 9.7382 20.8768 3.7832 23.4618L2.29487 21.1651C7.8532 18.1584 8.93987 14.2568 9.3732 11.7968C8.4782 12.2601 7.30654 12.4217 6.1582 12.3151C3.15154 12.0367 0.783203 9.56842 0.783203 6.50008C0.783203 4.95299 1.39778 3.46925 2.49175 2.37529C3.58571 1.28133 5.06944 0.666748 6.61654 0.666748C8.40487 0.666748 10.1149 1.48341 11.1965 2.63175H11.1949Z" fill="#F59E00"/>
</svg>

