<svg width="124" height="60" viewBox="0 0 124 60" fill="none" xmlns="http://www.w3.org/2000/svg">
<g clip-path="url(#clip0_208_4)">
<path d="M25.4033 46C25.9321 45.44 26.6372 45.04 27.5185 44.88V11.2C27.5185 10.48 26.8135 10 26.1965 10C25.9321 10 25.5796 10.08 25.3152 10.32L6.54296 27.28C6.27856 27.52 6.19043 27.84 6.19043 28.08C6.19043 28.4 6.36669 28.72 6.54296 28.88L25.2271 45.84C25.3152 46 25.3152 46 25.4033 46Z" fill="#00A89B"/>
<path d="M28.0473 50C29.3128 50 30.3388 49.0688 30.3388 47.92C30.3388 46.7712 29.3128 45.84 28.0473 45.84C26.7818 45.84 25.7559 46.7712 25.7559 47.92C25.7559 49.0688 26.7818 50 28.0473 50Z" fill="#858585"/>
<path d="M46.0264 28.96C45.8502 28.64 45.4976 28.24 44.7926 28.24H28.5762V44.56L45.762 30.24C46.2027 29.84 46.2027 29.36 46.0264 28.96Z" fill="#94D000"/>
<path d="M61.9783 36.32C61.4495 36.32 60.9207 36 60.5681 35.52L56.2496 27.12L54.487 28.88V35.12C54.487 35.76 53.8701 36.32 53.0769 36.32C52.2837 36.32 51.5786 35.76 51.5786 35.12V19.12C51.5786 18.48 52.2837 17.92 53.0769 17.92C53.8701 17.92 54.487 18.4 54.487 19.12V25.36C56.6022 23.04 58.7174 20.64 60.7444 18.4C61.0088 18.16 61.4495 18 61.8901 18C62.9477 18 63.6528 19.12 63.0359 19.92L58.2767 25.12L63.2121 34.64C63.5647 35.36 63.0359 36.32 61.9783 36.32Z" fill="#00A89B"/>
<path d="M67.1779 36.24C66.3847 36.24 65.6797 35.76 65.6797 35.04V19.28C65.6797 18.64 66.3847 18.16 67.1779 18.16H71.232C74.493 18.16 77.1369 20.48 77.1369 23.36V31.04C77.1369 33.92 74.493 36.24 71.232 36.24H67.1779ZM68.5881 33.84H71.1439C72.8184 33.84 74.1404 32.56 74.1404 31.04V23.36C74.1404 21.76 72.8184 20.56 71.1439 20.56H68.5881V33.84Z" fill="#00A89B"/>
<path d="M92.7366 34.88C92.9129 35.6 92.296 36.4 91.3265 36.4C90.7096 36.4 90.1808 36.08 90.0045 35.6L88.8588 32.24H83.2183C82.8658 33.44 82.5132 34.48 82.0726 35.6C81.8963 36.08 81.2794 36.4 80.6625 36.4C79.7811 36.4 78.9879 35.68 79.2523 34.88L84.5403 18.88C84.7166 18.4 85.3335 18.08 85.9504 18.08C86.5673 18.08 87.0961 18.4 87.3605 18.88L92.7366 34.88ZM87.9775 29.76L85.9504 22.8L83.8352 29.76H87.9775Z" fill="#00A89B"/>
<path d="M104.282 35.68L97.8483 24L98.1127 35.2C98.1127 35.84 97.4958 36.4 96.7026 36.4C95.9094 36.4 95.2925 35.84 95.2925 35.2V19.2C95.2925 18.56 95.9975 18 96.7026 18C97.2314 18 97.7602 18.32 98.0246 18.64L104.458 30.32L104.194 19.2C104.194 18.56 104.811 18 105.604 18C106.397 18 107.014 18.48 107.014 19.2V35.2C107.014 35.76 106.573 36.24 105.868 36.4H105.957C105.78 36.48 105.692 36.48 105.604 36.48C105.075 36.32 104.546 36.08 104.282 35.68Z" fill="#00A89B"/>
<path d="M59.9515 49.36V41.04L56.9549 46.48C56.8668 46.72 56.6024 46.8 56.338 46.8C56.0736 46.8 55.8974 46.72 55.7211 46.48L52.7246 41.04V49.36C52.7246 49.68 52.4602 49.92 52.1076 49.92C51.7551 49.92 51.4907 49.68 51.4907 49.36V38.56C51.4907 38.24 51.7551 38 52.1076 38C52.372 38 52.5483 38.16 52.7246 38.32L56.338 44.96L59.9515 38.32C60.0396 38.16 60.304 38 60.5684 38C60.9209 38 61.1853 38.32 61.1853 38.56V49.36C61.1853 49.68 60.9209 49.92 60.5684 49.92C60.2159 49.92 59.9515 49.68 59.9515 49.36Z" fill="#858585"/>
<path d="M64.0054 46.64V41.28C64.0054 39.44 65.5918 38 67.6188 38C69.6459 38 71.2322 39.52 71.2322 41.28V46.64C71.2322 48.48 69.6459 49.92 67.6188 49.92C65.6799 49.92 64.0054 48.48 64.0054 46.64ZM65.3274 41.28V46.64C65.3274 47.76 66.3849 48.72 67.6188 48.72C68.8527 48.72 69.9103 47.76 69.9103 46.64V41.28C69.9103 40.16 68.8527 39.2 67.6188 39.2C66.3849 39.12 65.3274 40.08 65.3274 41.28Z" fill="#858585"/>
<path d="M81.4556 46.4C81.4556 48.32 79.7811 49.84 77.6659 49.84H74.7576C74.405 49.84 74.1406 49.6 74.1406 49.28V38.64C74.1406 38.32 74.405 38.08 74.7576 38.08H77.6659C79.4286 38.08 81.015 39.44 81.015 41.12C81.015 42.08 80.4862 42.96 79.693 43.52C80.7506 44.08 81.4556 45.2 81.4556 46.4ZM75.4626 39.28V42.96H77.6659C78.8117 42.96 79.693 42.08 79.693 41.12C79.693 40.16 78.8117 39.28 77.6659 39.28H75.4626ZM80.1336 46.4C80.1336 45.12 78.9879 44.16 77.6659 44.16H75.4626V48.72H77.6659C79.0761 48.64 80.1336 47.68 80.1336 46.4Z" fill="#858585"/>
<path d="M89.3876 49.28C89.3876 49.6 89.1232 49.84 88.7706 49.84H84.1877C83.8352 49.84 83.5708 49.6 83.5708 49.28C83.5708 48.96 83.8352 48.72 84.1877 48.72H85.8622V39.28H84.1877C83.8352 39.28 83.5708 39.04 83.5708 38.72C83.5708 38.4 83.8352 38.16 84.1877 38.16H88.7706C89.1232 38.16 89.3876 38.4 89.3876 38.72C89.3876 39.04 89.1232 39.28 88.7706 39.28H87.1842V48.72H88.7706C89.1232 48.64 89.3876 48.96 89.3876 49.28Z" fill="#858585"/>
<path d="M98.5536 49.2C98.5536 49.52 98.2892 49.76 97.9366 49.76H92.6487C92.2961 49.76 92.0317 49.52 92.0317 49.2V38.56C92.0317 38.24 92.2961 38 92.6487 38C93.0012 38 93.2656 38.24 93.2656 38.56V48.56H97.9366C98.2892 48.56 98.5536 48.8 98.5536 49.2Z" fill="#858585"/>
<path d="M107.191 49.28C107.191 49.6 106.926 49.84 106.574 49.84H101.286C100.933 49.84 100.669 49.6 100.669 49.28V38.64C100.669 38.32 100.933 38.08 101.286 38.08H106.486C106.838 38.08 107.103 38.32 107.103 38.64C107.103 38.96 106.838 39.2 106.486 39.2H101.903V42.88H105.957C106.309 42.88 106.574 43.12 106.574 43.44C106.574 43.76 106.309 44 105.957 44H101.903V48.56H106.486C106.926 48.64 107.191 48.96 107.191 49.28Z" fill="#858585"/>
</g>
<defs>
<clipPath id="clip0_208_4">
<rect width="101" height="40" fill="white" transform="translate(6.19043 10)"/>
</clipPath>
</defs>
</svg>
